<svg xmlns="http://www.w3.org/2000/svg" viewBox="0 0 100 100">
  <defs>
    <linearGradient id="bg" x1="0%" y1="0%" x2="100%" y2="100%">
      <stop offset="0%" style="stop-color:#0f172a"/>
      <stop offset="100%" style="stop-color:#1e1b4b"/>
    </linearGradient>
    <linearGradient id="sun" x1="0%" y1="0%" x2="100%" y2="100%">
      <stop offset="0%" style="stop-color:#facc15"/>
      <stop offset="100%" style="stop-color:#f59e0b"/>
    </linearGradient>
  </defs>
  <rect width="100" height="100" rx="20" fill="url(#bg)"/>
  <circle cx="50" cy="50" r="25" fill="url(#sun)"/>
  <circle cx="50" cy="50" r="18" fill="url(#bg)" opacity="0.2"/>
  <path d="M50 20 L53 30 L50 28 L47 30 Z" fill="#facc15"/>
  <path d="M50 80 L53 70 L50 72 L47 70 Z" fill="#facc15"/>
  <path d="M20 50 L30 53 L28 50 L30 47 Z" fill="#facc15"/>
  <path d="M80 50 L70 53 L72 50 L70 47 Z" fill="#facc15"/>
  <path d="M28 28 L36 33 L33 32 L32 35 Z" fill="#facc15"/>
  <path d="M72 72 L64 67 L67 68 L68 65 Z" fill="#facc15"/>
  <path d="M72 28 L64 33 L67 32 L68 35 Z" fill="#facc15"/>
  <path d="M28 72 L36 67 L33 68 L32 65 Z" fill="#facc15"/>
  <text x="50" y="56" text-anchor="middle" font-size="20" fill="#0f172a">😊</text>
</svg>
