<svg xmlns="http://www.w3.org/2000/svg" width="512" height="512" viewBox="0 0 512 512">
  <defs>
    <linearGradient id="bg" x1="0%" y1="0%" x2="100%" y2="100%">
      <stop offset="0%" style="stop-color:#0f172a"/>
      <stop offset="100%" style="stop-color:#1e1b4b"/>
    </linearGradient>
    <linearGradient id="sun" x1="0%" y1="0%" x2="100%" y2="100%">
      <stop offset="0%" style="stop-color:#fde047"/>
      <stop offset="100%" style="stop-color:#f59e0b"/>
    </linearGradient>
  </defs>
  
  <!-- Background -->
  <rect width="512" height="512" rx="102" fill="url(#bg)"/>
  
  <!-- Sun -->
  <circle cx="256" cy="256" r="100" fill="url(#sun)"/>
  
  <!-- Rays -->
  <g fill="#facc15">
    <polygon points="256,80 268,120 256,110 244,120"/>
    <polygon points="256,432 268,392 256,402 244,392"/>
    <polygon points="80,256 120,268 110,256 120,244"/>
    <polygon points="432,256 392,268 402,256 392,244"/>
    <polygon points="131,131 160,155 150,148 143,158"/>
    <polygon points="381,381 352,357 362,364 369,354"/>
    <polygon points="381,131 352,155 362,148 369,158"/>
    <polygon points="131,381 160,357 150,364 143,354"/>
  </g>
  
  <!-- Smile face -->
  <circle cx="220" cy="240" r="15" fill="#0f172a"/>
  <circle cx="292" cy="240" r="15" fill="#0f172a"/>
  <path d="M200 280 Q256 340 312 280" stroke="#0f172a" stroke-width="12" fill="none" stroke-linecap="round"/>
</svg>
